<?xml version="1.0" standalone="no"?>
<!DOCTYPE svg PUBLIC "-//W3C//DTD SVG 20010904//EN"
 "http://www.w3.org/TR/2001/REC-SVG-20010904/DTD/svg10.dtd">
<svg version="1.0" xmlns="http://www.w3.org/2000/svg"
 width="800.000000pt" height="800.000000pt" viewBox="0 0 800.000000 800.000000"
 preserveAspectRatio="xMidYMid meet">

<g transform="translate(0.000000,800.000000) scale(0.100000,-0.100000)"
fill="#000000" stroke="none">
<path d="M3410 6841 c-88 -23 -130 -45 -172 -89 -50 -52 -75 -100 -88 -172
-20 -113 6 -221 73 -297 37 -43 128 -103 155 -103 10 0 23 -5 29 -11 11 -11
135 -7 188 6 50 13 128 70 161 116 56 81 67 116 67 214 0 67 -4 100 -18 130
-50 107 -117 167 -231 205 -70 23 -80 23 -164 1z"/>
<path d="M2282 5740 c-4 -3 -6 -157 -4 -342 l3 -338 429 0 428 0 6 -22 c3 -13
6 -572 6 -1243 l0 -1220 95 -95 c52 -52 203 -204 335 -337 132 -134 241 -243
243 -243 1 0 2 865 2 1922 l0 1921 -768 1 c-423 1 -772 -1 -775 -4z"/>
<path d="M4195 5042 c-10 -11 -5 -3852 5 -3852 6 0 10 5 10 10 0 6 148 160
330 342 l330 332 2 1230 3 1231 428 3 427 2 0 356 0 356 -765 -3 c-421 -1
-767 -5 -770 -7z"/>
</g>
</svg>
